<svg width="48" height="48" viewBox="0 0 48 48" fill="none">
  <circle cx="24" cy="12" r="6" fill="#1B1B1B"/>
  <path d="M18 18C18 18 20 16 24 16C28 16 30 18 30 18L32 24C32 24 30 26 24 26C18 26 16 24 16 24L18 18Z" fill="#2D5016"/>
  <rect x="12" y="20" width="8" height="12" fill="#1B1B1B"/>
  <rect x="12" y="22" width="8" height="2" fill="#1B1B1B"/>
  <rect x="12" y="26" width="8" height="2" fill="#1B1B1B"/>
  <rect x="12" y="30" width="8" height="2" fill="#1B1B1B"/>
  <line x1="12" y1="20" x2="12" y2="32" stroke="#FFD700" stroke-width="1"/>
  <path d="M20 30C20 30 22 28 24 28C26 28 28 30 28 30L30 36C30 36 28 38 24 38C20 38 18 36 18 36L20 30Z" fill="#2D5016"/>
  <rect x="22" y="38" width="2" height="2" fill="#FFD700"/>
  <rect x="24" y="38" width="2" height="2" fill="#FFD700"/>
  <path d="M30 20C32 22 32 26 30 28" stroke="#FFD700" stroke-width="2" fill="none"/>
</svg>
