<?xml version="1.0" encoding="utf-8"?>
<!-- Generator: Adobe Illustrator 18.1.1, SVG Export Plug-In . SVG Version: 6.00 Build 0)  -->
<svg version="1.1"
	 id="svg57" xmlns:rdf="http://www.w3.org/1999/02/22-rdf-syntax-ns#" xmlns:dc="http://purl.org/dc/elements/1.1/" xmlns:cc="http://creativecommons.org/ns#" xmlns:svg="http://www.w3.org/2000/svg" xmlns:sodipodi="http://sodipodi.sourceforge.net/DTD/sodipodi-0.dtd" xmlns:inkscape="http://www.inkscape.org/namespaces/inkscape" sodipodi:docname="seguros_bolivar.cdr"
	 xmlns="http://www.w3.org/2000/svg" xmlns:xlink="http://www.w3.org/1999/xlink" x="0px" y="0px" viewBox="116 329 376 121.4"
	 enable-background="new 116 329 376 121.4" xml:space="preserve">
<sodipodi:namedview  guidetolerance="10" gridtolerance="10" borderopacity="1" pagecolor="#ffffff" bordercolor="#666666" id="namedview59" objecttolerance="10" inkscape:window-height="480" inkscape:window-width="640" inkscape:pageshadow="2" inkscape:pageopacity="0">
	</sodipodi:namedview>
<path id="path2" fill="none" d="M59.5,150.5v493h493v-493H59.5z"/>
<g id="Layer1000">
	<path id="path4" fill="#FFD137" d="M390.1,434.1h86v-86h-86V434.1z"/>
	<path id="path6" fill="#00784A" d="M434.7,351.4c11.7-4.2,19.4,1.8,19.4,1.8s-7.8-2.1-14-0.5L434.7,351.4z"/>
	<path id="path8" fill="none" d="M434.7,351.4c11.7-4.2,19.4,1.8,19.4,1.8s-7.8-2.1-14-0.5L434.7,351.4z"/>
	<path id="path10" fill="#00784A" d="M440.4,356.8c13.3-2,13.6,2.1,13.6,2.1s-2.7-1.2-9-0.6L440.4,356.8z"/>
	<path id="path12" fill="none" d="M440.4,356.8c13.3-2,13.6,2.1,13.6,2.1s-2.7-1.2-9-0.6L440.4,356.8z"/>
	<path id="path14" fill="#00784A" d="M431.6,399.5c5.4-4.9,12.2-4,14.1-0.9c2.6,4.1,1.2,8.8-2.4,12.1c0,0,5.1-5.7,1.4-10.5
		c-1.9-2.6-7.4-2.7-11.6,0.8c-4.2,3.5-8.1,12.2,1.7,14.4C426.3,416,424.5,405.8,431.6,399.5z"/>
	<path id="path16" fill="none" d="M431.6,399.5c5.4-4.9,12.2-4,14.1-0.9c2.6,4.1,1.2,8.8-2.4,12.1c0,0,5.1-5.7,1.4-10.5
		c-1.9-2.6-7.4-2.7-11.6,0.8c-4.2,3.5-8.1,12.2,1.7,14.4C426.3,416,424.5,405.8,431.6,399.5z"/>
	<path id="path18" fill="#00784A" d="M459.6,378.9c38-15.6,36.7,30.2-28.1,71.4C484.7,406.8,494.6,373.5,459.6,378.9z"/>
	<path id="path20" fill="none" d="M459.6,378.9c38-15.6,36.7,30.2-28.1,71.4C484.7,406.8,494.6,373.5,459.6,378.9z"/>
	<path id="path22" fill="#00784A" d="M404.1,403.8c-37.7,14.7-14.8,30.2-14.8,30.2S375.3,419.1,404.1,403.8z"/>
	<path id="path24" fill="none" d="M404.1,403.8c-37.7,14.7-14.8,30.2-14.8,30.2S375.3,419.1,404.1,403.8z"/>
	<path id="path26" fill="#00784A" d="M437.6,434c24-12.2,8.3-24.9,8.3-24.9s8.2,13.7-11.1,24.9H437.6z"/>
	<path id="path28" fill="none" d="M437.6,434c24-12.2,8.3-24.9,8.3-24.9s8.2,13.7-11.1,24.9H437.6z"/>
	<path id="path30" fill="#00784A" d="M403.6,408c0,0,3.6-7.7,6.2-18.9C409.8,389.1,411.3,399.9,403.6,408z"/>
	<path id="path32" fill="none" d="M403.6,408c0,0,3.6-7.7,6.2-18.9C409.8,389.1,411.3,399.9,403.6,408z"/>
	<path id="path34" fill="#00784A" d="M396.7,408.3c0,0-21.3-20.7,12.1-35.4c9.7-4.3,22.1-5.4,27.8,2.6c1.7,2.5,1.9,18.9-15.9,31.6
		c-7.7-2.5-8.4-6.9-8.4-6.9c3.5,4.2,8.6,5.1,8.6,5.1c14.7-12.1,15.3-27.2,13.5-28.9c-5.8-5.2-15.1-5.2-24.3-1.5
		C380.8,387,396.7,408.3,396.7,408.3L396.7,408.3z"/>
	<path id="path36" fill="none" d="M396.7,408.3c0,0-21.3-20.7,12.1-35.4c9.7-4.3,22.1-5.4,27.8,2.6c1.7,2.5,1.9,18.9-15.9,31.6
		c-7.7-2.5-8.4-6.9-8.4-6.9c3.5,4.2,8.6,5.1,8.6,5.1c14.7-12.1,15.3-27.2,13.5-28.9c-5.8-5.2-15.1-5.2-24.3-1.5
		C380.8,387,396.7,408.3,396.7,408.3L396.7,408.3z"/>
	<path id="path38" fill="#00784A" d="M410.7,433.9h-3.6c0,0,8.3-14.5,21.2-17.2C428.3,416.7,416.6,421.3,410.7,433.9z"/>
	<path id="path40" fill="none" d="M410.7,433.9h-3.6c0,0,8.3-14.5,21.2-17.2C428.3,416.7,416.6,421.3,410.7,433.9z"/>
	<path id="path42" fill="#00784A" d="M452.7,363c0,0-2,2.5,0.1,7.7c1.9,5.1,7.1,10.4,7.1,10.4S453.9,372.2,452.7,363L452.7,363z"/>
	<path id="path44" fill="none" d="M452.7,363c0,0-2,2.5,0.1,7.7c1.9,5.1,7.1,10.4,7.1,10.4S453.9,372.2,452.7,363L452.7,363z"/>
	<path id="path46" fill="#00784A" d="M414.7,356.8c0,0,0.5-8.8,12.6-11.8c16.7-4.2,23.7,2.8,23.7,2.8s-9.5-3-22.2-0.6
		c-3.7,0.8-9,3.5-10.9,8.7c-0.2,0.5,4.9,2.4,4.9,2.4s4.4,19.4,16.3,26.4c5.1-2,8.7-8,8.7-8c0-0.1-0.7,6.6-8.5,9.6
		c-14.4-7.5-19.1-26.4-19.1-26.4S415.1,358.1,414.7,356.8L414.7,356.8z"/>
	<path id="path48" fill="none" d="M414.7,356.8c0,0,0.5-8.8,12.6-11.8c16.7-4.2,23.7,2.8,23.7,2.8s-9.5-3-22.2-0.6
		c-3.7,0.8-9,3.5-10.9,8.7c-0.2,0.5,4.9,2.4,4.9,2.4s4.4,19.4,16.3,26.4c5.1-2,8.7-8,8.7-8c0-0.1-0.7,6.6-8.5,9.6
		c-14.4-7.5-19.1-26.4-19.1-26.4S415.1,358.1,414.7,356.8L414.7,356.8z"/>
	<path id="path50" fill="#00784A" d="M419.8,381.4c-27.3,7.1-16.5,18.6-16.5,18.6S397.3,390.9,419.8,381.4z"/>
	<path id="path52" fill="none" d="M419.8,381.4c-27.3,7.1-16.5,18.6-16.5,18.6S397.3,390.9,419.8,381.4z"/>
	<path id="path54" fill="#00784A" d="M205.3,387.1c1.1-0.1,2.5-0.2,3.7-0.2c0.8,0,2.4,0.1,3.4,0.2v-0.3l-1.9-0.6
		c-0.6-0.2-0.7-0.7-0.7-3.8v-2.7h1.8c1.5,1.9,3.6,4.9,5.1,7.5c0.6,0,1.2-0.1,1.7-0.1c0.5,0,1.1,0,1.7,0.1v-0.3
		c-1.3-0.2-1.4-0.4-2.8-2.4l-3.3-4.9c2.2-0.4,3.9-1.5,3.9-3.9c0-2.4-2-3.6-5.1-3.6c-1.7,0-3,0.2-4.2,0.2c-1.3,0-2.4-0.1-3.2-0.2v0.3
		l2,0.7c0.5,0.2,0.6,0.3,0.6,2.5v8.5c0,1.8-0.1,1.9-0.8,2.1l-1.8,0.6V387.1z M231.3,387.4c4.7,0,7.5-3.7,7.5-8.4
		c0-4.3-2.8-7.3-7.1-7.3c-4.8,0-7.7,3.3-7.7,8C224,383.5,226.4,387.4,231.3,387.4L231.3,387.4z M132.3,427.4c0,3.7-0.2,3.9-1.5,4.3
		l-3.7,1.2v0.7c2.1-0.2,4-0.4,6.3-0.4c2.9,0,6.7,0.4,10.3,0.4c6.9,0,10.3-3.7,10.3-8.1c0-5.6-5.5-7.4-10.2-7.7v-0.1
		c4.5-0.4,8.8-2.8,8.8-6.7c0-5.7-5.1-8-10.2-8c-2.7,0-6.3,0.4-8.2,0.4c-1.9,0-4.3-0.2-7-0.4v0.7l4,1.3c1,0.3,1.2,0.7,1.2,5.1
		L132.3,427.4z M178.5,434.2c9.5,0,15.1-7.5,15.1-16.9c0-8.7-5.6-14.8-14.4-14.8c-9.6,0-15.6,6.7-15.6,16.1
		C163.7,426.3,168.6,434.2,178.5,434.2L178.5,434.2z M283.4,433.6c1.8-0.2,3.5-0.4,5.3-0.4c1.9,0,3.8,0.2,5.6,0.4v-0.7l-4.1-1.5
		c0.7-2.7,1.4-5.5,2.7-7.9c2,0,4-0.1,6-0.1c2,0,4,0,6,0.1c0.7,1.4,2.2,5.9,2.8,7.9c-1.4,0.6-3.5,1.2-4.7,1.5v0.7
		c2.1-0.2,4.2-0.4,6.4-0.4c2.5,0,5,0.2,7.5,0.4v-0.7l-4-1.4c-4-9.7-8.3-19.6-12.1-29.5h-1c-3.4,8.6-8.6,19.5-12.7,29.3
		c-1.1,0.6-2.5,1.1-3.6,1.6L283.4,433.6z M320.2,433.6c2.3-0.2,5-0.4,7.5-0.4c1.7,0,4.9,0.2,6.9,0.4v-0.7l-3.8-1.3
		c-1.2-0.4-1.4-1.5-1.4-7.7v-5.5h3.7c3,3.9,7.2,9.9,10.2,15.1c1.2-0.1,2.4-0.2,3.5-0.2c1.1,0,2.2,0.1,3.3,0.2l0-0.7
		c-2.7-0.5-2.9-0.8-5.7-5l-6.6-9.8c4.4-0.7,7.8-3,7.8-7.8c0-4.8-4.1-7.3-10.4-7.3c-3.4,0-6.1,0.4-8.6,0.4c-2.6,0-4.8-0.2-6.6-0.4
		v0.7l4,1.3c1,0.3,1.2,0.7,1.2,5.1v17.2c0,3.7-0.2,3.9-1.5,4.3l-3.7,1.2L320.2,433.6z M133.5,382.9h0.3l0.8,3
		c0.7,0.4,1.8,0.5,2.4,0.5c1.9,0,3.6-0.8,3.6-3c0-3.3-7.4-3.1-7.4-7.5c0-2.9,2.6-4.2,5.2-4.2c1,0,2.5,0.3,3.5,0.8l-0.1,3.2h-0.3
		l-0.9-2.6c-0.8-0.3-1.6-0.4-2.4-0.4c-1.5,0-2.9,1.2-2.9,2.7c0,3.7,7.4,2.8,7.4,7.6c0,2-1.5,4.4-6.2,4.4c-1.1,0-2.1-0.1-3.5-0.7
		L133.5,382.9z M150,375.5c0-2.2-0.1-2.4-0.6-2.5l-2-0.7V372c2,0.1,3.7,0.2,5.5,0.2c2.2,0,4.4-0.1,6.5-0.2c0,0.6-0.1,1.4-0.1,1.8
		s0,1.2,0.1,1.7h-0.3l-0.6-1.8c-0.2-0.7-0.4-0.7-3.1-0.7c-1.4,0-2.4,0-3.3,0c0,0.8-0.1,1.7-0.1,2.7v2.9h2.5c2.9,0,3.1,0,3.3-0.6
		l0.6-1.7h0.3c0,0.9,0,1.8,0,2.7c0,1,0,1.9,0,2.9h-0.3l-0.6-1.8c-0.2-0.5-0.5-0.6-3.3-0.6h-2.5v3.2c0,1.1,0.1,2.2,0.1,3.2
		c1.1,0,2.2,0.1,3.3,0.1c2.5,0,2.9,0,3.1-0.3c0.3-0.4,0.5-1.1,1-2.5h0.3c0,0.7-0.1,1.4-0.1,2.1l0,1.8c-1.2-0.1-4.8-0.2-6.2-0.2
		c-2.1,0-4.3,0.1-6,0.2v-0.3l1.8-0.6c0.7-0.2,0.8-0.3,0.8-2.1L150,375.5z M175.5,381.9c0-0.4-0.1-0.5-1.2-0.9l-1.4-0.5v-0.3
		c1.1,0,2.3,0.2,3.4,0.2c1.1,0,2.1-0.1,3.1-0.2v0.3l-1.5,0.7c-0.4,0.2-0.5,0.4-0.5,0.9v3.6c0,0.2,0,0.6,0,1.1
		c-0.9,0.3-2.9,0.7-4.4,0.7c-5.4,0-8.7-3.1-8.7-7.6c0-5.4,5-8.1,9.2-8.1c1.3,0,2.3,0.1,3.3,0.3c0,0.6,0,1.2,0,1.8c0,0.7,0,1.4,0,2.1
		h-0.3c-0.3-1-0.8-2.3-1.1-2.8c-0.2-0.3-1.6-0.5-2.6-0.5c-3.3,0-6.1,2.3-6.1,7c0,4.1,2.4,6.9,5.9,6.9c1,0,1.9-0.1,2.7-0.4
		c0-0.4,0-0.7,0-0.9L175.5,381.9z M200.4,372.3l-1,0.4c-0.6,0.3-0.9,0.5-1,1c0,1.3,0,3.3,0,7.4c0,4.6-2.3,6.3-5.8,6.3
		c-3.4,0-5.8-1.5-5.8-5.1v-6.6c0-2-0.1-2.5-0.7-2.7l-1.7-0.7V372c1.2,0.1,2.3,0.2,3.4,0.2c1.2,0,2.5-0.1,3.7-0.2v0.3l-1.1,0.4
		c-1.3,0.5-1.5,0.6-1.5,1.4c-0.1,1.4-0.1,3.4-0.1,7c0,3,0.7,5,4.4,5c2.5,0,4-1.5,4-4.4c0-2.9,0-6.6-0.2-8.3c0-0.4-0.4-0.6-1-0.8
		l-1.3-0.4V372c1,0.1,2,0.2,3.1,0.2c0.9,0,1.8-0.1,2.8-0.2V372.3z M209.8,373c0.7,0,1.4,0,2.2,0c2.2,0,3.7,0.9,3.7,3
		c0,2.6-2,2.9-4.2,2.9h-1.6V373z M231.5,386.6c-3.4,0-5.2-3.2-5.2-8.1c0-3.3,1.8-6.1,5-6.1c3.9,0,5,3.7,5,7.7
		C236.4,383.4,235.1,386.6,231.5,386.6z M244.4,382.9h0.3l0.8,3c0.7,0.4,1.8,0.5,2.4,0.5c1.9,0,3.6-0.8,3.6-3c0-3.3-7.4-3.1-7.4-7.5
		c0-2.9,2.6-4.2,5.2-4.2c1,0,2.5,0.3,3.5,0.8l-0.1,3.2h-0.3l-0.9-2.6c-0.8-0.3-1.6-0.4-2.4-0.4c-1.5,0-2.9,1.2-2.9,2.7
		c0,3.7,7.4,2.8,7.4,7.6c0,2-1.5,4.4-6.2,4.4c-1.1,0-2.1-0.1-3.5-0.7L244.4,382.9z M237.4,401.1h2l7.2-4.7c0,0,2.8-1.8,1.2-3.3
		c-1.5-1.5-4.1,1.5-4.1,1.5L237.4,401.1z M136.3,418.5h3.4c5.3,0,9.7,1.7,9.7,6.9c0,5.6-4.7,6.7-9.3,6.7c-1.2,0-2.3-0.1-3.6-0.1
		c-0.1-1.5-0.1-2.9-0.1-4.4L136.3,418.5z M136.3,410.4c0-2.1,0-3.5,0.1-5.7c1.6-0.1,2.6-0.1,4.1-0.1c4,0,7.4,1.7,7.4,6.3
		c0,5.4-4.9,6-8,6h-3.7L136.3,410.4z M179,432.6c-6.9,0-10.4-6.5-10.4-16.3c0-6.8,3.6-12.3,10.2-12.3c7.9,0,10,7.6,10,15.5
		C188.8,426,186.2,432.6,179,432.6z M207.8,410.2c0-4.5-0.1-4.8-1.2-5.1l-4-1.3V403c2.3,0.2,4.6,0.4,7,0.4c2.4,0,4.8-0.2,7.7-0.4
		v0.7L213,405c-1,0.3-1.2,0.7-1.2,5.5v20.9h9.2c2.4,0,2.7-0.4,3.6-2.3l1.5-3.2h0.6l-0.4,7.7c-4.6-0.2-11-0.4-13.9-0.4
		c-3.2,0-6.5,0.2-9.8,0.4v-0.7l3.7-1.2c1.3-0.4,1.5-0.6,1.5-4.3V410.2z M233.5,432.9l3.7-1.2c1.2-0.4,1.3-0.6,1.4-4.3
		c0.1-2.9,0.1-5.8,0.1-8.6c0-2.9-0.1-5.8-0.1-8.6c-0.1-4.5-0.1-4.8-1-5.1l-4-1.3V403c2.3,0.2,4.6,0.4,7.3,0.4c2.4,0,4.7-0.2,7.1-0.4
		v0.7l-4,1.3c-0.9,0.3-1,0.7-1,5.1c0,2.9-0.1,5.8-0.1,8.6c0,2.9,0.1,5.8,0.1,8.6c0.1,3.7,0.2,3.9,1.4,4.3l3.7,1.2v0.7
		c-2.2-0.2-5-0.4-7.1-0.4c-2.4,0-5.1,0.2-7.3,0.4L233.5,432.9z M254.3,403c2.2,0.2,4.4,0.4,6.6,0.4c2,0,4-0.2,6-0.4v0.7l-1.7,0.5
		c-2.2,0.6-2.6,0.9-2.6,1.4c0,1,6.1,15.8,8.3,20.8c2.9-6.9,5.6-13.8,7.2-19.1c0.3-0.9,0.5-1.4,0.5-1.9c0-0.5-1.5-1-3.6-1.7V403
		c1.8,0.2,3.6,0.4,5.4,0.4c1.5,0,2.9-0.2,4.3-0.4v0.7c-2,0.5-2.7,1-3.5,2.7c-3,6.5-6.8,15.9-11.1,27.8h-1.1
		c-3.1-8.7-7.9-20.7-11-27.6c-0.8-1.8-1.1-1.9-2.6-2.4l-1.3-0.5V403z M304.3,421.6h-10.7L299,409L304.3,421.6z M329.4,405
		c1.4,0,2.9,0,4.4,0c4.5,0,7.4,1.8,7.4,6c0,5.2-4.1,5.9-8.5,5.9h-3.2V405z"/>
</g>
</svg>
