<svg width="64" height="64" viewBox="0 0 64 64" fill="none" xmlns="http://www.w3.org/2000/svg">
<path fill-rule="evenodd" clip-rule="evenodd" d="M46.3541 25.0117C46.9064 25.0117 47.3541 25.4594 47.3541 26.0117V32.1839C47.3541 32.2284 47.3511 32.2729 47.3452 32.317C46.7918 36.4388 45.7094 39.471 43.4415 41.8206C41.1996 44.1433 37.9129 45.6773 33.241 47.0812C32.4182 47.3285 31.5121 47.3596 30.6456 47.0811C29.6967 46.776 28.5812 46.3521 27.9442 46.0595C27.4424 45.8289 27.2224 45.2351 27.453 44.7333C27.6836 44.2314 28.2774 44.0115 28.7792 44.2421C29.3238 44.4923 30.3606 44.8887 31.2577 45.177C31.6914 45.3165 32.1802 45.3116 32.6655 45.1658C37.2556 43.7865 40.1294 42.3723 42.0025 40.4317C43.8392 38.5288 44.8255 36.0005 45.3541 32.1166V26.0117C45.3541 25.4594 45.8018 25.0117 46.3541 25.0117ZM17.5842 25.1858C18.1365 25.1858 18.5842 25.6335 18.5842 26.1858V28.2397C18.5842 28.792 18.1365 29.2397 17.5842 29.2397C17.0319 29.2397 16.5842 28.792 16.5842 28.2397V26.1858C16.5842 25.6335 17.0319 25.1858 17.5842 25.1858Z" fill="#086D44"/>
<path fill-rule="evenodd" clip-rule="evenodd" d="M37.9656 43.8979C38.5179 43.8979 38.9656 44.3457 38.9656 44.8979V48.8929C38.9656 49.1581 38.8603 49.4125 38.6727 49.6L34.977 53.2957C33.0244 55.2484 29.8586 55.2483 27.9059 53.2957C27.5154 52.9052 27.5154 52.272 27.9059 51.8815C28.2965 51.491 28.9296 51.491 29.3201 51.8815C30.4917 53.0531 32.3912 53.0531 33.5628 51.8815L36.9656 48.4787V44.8979C36.9656 44.3457 37.4134 43.8979 37.9656 43.8979Z" fill="#086D44"/>
<path fill-rule="evenodd" clip-rule="evenodd" d="M37.4035 48.4456C37.1565 48.9396 37.3568 49.5402 37.8507 49.7872C38.1055 49.9146 38.8757 50.1965 39.8675 50.548C40.9024 50.9147 42.2764 51.3901 43.8222 51.9194C46.9145 52.9781 50.7046 54.2554 53.867 55.3149C55.6285 55.9051 57.0841 57.1677 57.9143 58.8281L59.1508 61.301C59.3978 61.795 59.9984 61.9952 60.4924 61.7482C60.9864 61.5012 61.1866 60.9005 60.9396 60.4066L59.7031 57.9336C58.6356 55.7985 56.7645 54.1765 54.5024 53.4186C51.3417 52.3595 47.5563 51.0838 44.47 50.0272C42.9265 49.4987 41.5603 49.0259 40.5355 48.6628C40.0226 48.4811 39.5988 48.3281 39.2823 48.2099C39.1238 48.1507 38.996 48.1017 38.8992 48.063C38.8509 48.0437 38.813 48.0281 38.7846 48.0159C38.7594 48.0051 38.7477 47.9995 38.7454 47.9985C38.7449 47.9982 38.7448 47.9982 38.7452 47.9984C38.2512 47.7514 37.6505 47.9516 37.4035 48.4456Z" fill="#086D44"/>
<path fill-rule="evenodd" clip-rule="evenodd" d="M42.1951 31.5303C42.7468 31.555 43.174 32.0223 43.1493 32.5741C43.0663 34.4285 42.3413 36.4265 41.1548 38.0756C39.9665 39.7272 38.2567 41.1066 36.1499 41.5906C35.6116 41.7143 35.075 41.3782 34.9514 40.8399C34.8277 40.3016 35.1638 39.7651 35.7021 39.6414C37.2221 39.2922 38.5509 38.2701 39.5313 36.9076C40.5135 35.5425 41.0873 33.9138 41.1513 32.4846C41.176 31.9328 41.6433 31.5056 42.1951 31.5303Z" fill="#FFDA55"/>
<path fill-rule="evenodd" clip-rule="evenodd" d="M29.0174 56.2787C29.5522 56.4166 29.874 56.9619 29.7362 57.4967L28.8065 61.1036C28.6686 61.6384 28.1233 61.9602 27.5885 61.8224C27.0537 61.6845 26.7319 61.1393 26.8698 60.6044L27.7995 56.9975C27.9373 56.4627 28.4826 56.1409 29.0174 56.2787Z" fill="#FFDA55"/>
<path fill-rule="evenodd" clip-rule="evenodd" d="M45.3524 50.8606C45.8007 51.1833 45.9024 51.8083 45.5797 52.2565L41.6328 57.7388C41.4775 57.9545 41.2428 58.0995 40.9803 58.1418C40.7179 58.184 40.4495 58.1201 40.2343 57.9641L37.093 55.6865C36.6459 55.3623 36.5462 54.737 36.8704 54.2899C37.1946 53.8428 37.8199 53.7431 38.267 54.0673L40.596 55.7559L43.9566 51.0879C44.2793 50.6397 44.9042 50.538 45.3524 50.8606Z" fill="#086D44"/>
<path fill-rule="evenodd" clip-rule="evenodd" d="M33.9137 56.2787C33.3789 56.4166 33.0571 56.9619 33.195 57.4967L34.1247 61.1036C34.2625 61.6384 34.8078 61.9602 35.3426 61.8224C35.8774 61.6845 36.1992 61.1393 36.0614 60.6044L35.1317 56.9975C34.9938 56.4627 34.4485 56.1409 33.9137 56.2787Z" fill="#FFDA55"/>
<path fill-rule="evenodd" clip-rule="evenodd" d="M16.6812 17.4788C16.6812 10.2991 22.5014 4.47876 29.6811 4.47876H34.3161C41.433 4.47876 47.2269 10.2014 47.3151 17.3178L47.3741 22.0802C47.3809 22.6324 46.9388 23.0856 46.3865 23.0925C45.8343 23.0993 45.3811 22.6572 45.3742 22.1049L45.3152 17.3425C45.2407 11.321 40.3381 6.47876 34.3161 6.47876H29.6811C23.606 6.47876 18.6812 11.4036 18.6812 17.4788V18.4788C18.6812 19.031 18.2334 19.4788 17.6812 19.4788C17.1289 19.4788 16.6812 19.031 16.6812 18.4788V17.4788Z" fill="#1B1B1B"/>
<path fill-rule="evenodd" clip-rule="evenodd" d="M37.3319 20.2352C37.6777 19.806 38.3055 19.7376 38.7355 20.0818C38.7363 20.0825 38.7372 20.0832 38.738 20.0839L38.1106 20.8626L37.4833 21.6413C37.0532 21.2948 36.9854 20.6653 37.3319 20.2352ZM38.7355 20.0818C38.7358 20.0821 38.7363 20.0825 38.737 20.083L38.7543 20.0964C38.7719 20.1097 38.8013 20.1317 38.842 20.1608C38.9235 20.219 39.0496 20.3051 39.2157 20.4068C39.5489 20.6109 40.0365 20.8742 40.6416 21.102C41.8529 21.5581 43.4955 21.859 45.322 21.3084C45.8508 21.149 46.4087 21.4484 46.5681 21.9772C46.7275 22.506 46.428 23.0638 45.8993 23.2233C43.5354 23.9359 41.428 23.5351 39.9369 22.9738C39.1908 22.6929 38.5891 22.3685 38.1708 22.1121C37.9611 21.9836 37.7959 21.8713 37.68 21.7886C37.6221 21.7472 37.5763 21.7131 37.5433 21.6881C37.5268 21.6755 37.5135 21.6652 37.5035 21.6574L37.4909 21.6474L37.4865 21.6439L37.4847 21.6425L37.4839 21.6419C37.4836 21.6416 37.4833 21.6413 38.1106 20.8626" fill="#1B1B1B"/>
<path fill-rule="evenodd" clip-rule="evenodd" d="M38.6548 14.7231C39.0721 15.0848 39.1172 15.7164 38.7555 16.1337L38.3831 16.5633C33.4682 22.2338 25.901 24.8508 18.533 23.4281L16.358 23.0081C15.8157 22.9034 15.461 22.379 15.5657 21.8367C15.6704 21.2944 16.1949 20.9397 16.7371 21.0444L18.9122 21.4644C25.5785 22.7516 32.425 20.3838 36.8718 15.2534L37.2442 14.8238C37.6059 14.4065 38.2374 14.3614 38.6548 14.7231Z" fill="#1B1B1B"/>
<path fill-rule="evenodd" clip-rule="evenodd" d="M14.7288 54.6965C14.7288 54.1442 14.281 53.6965 13.7288 53.6965H8.45697C7.90468 53.6965 7.45697 54.1442 7.45697 54.6965C7.45697 55.2488 7.90468 55.6965 8.45697 55.6965H13.7288C14.281 55.6965 14.7288 55.2488 14.7288 54.6965Z" fill="#1B1B1B"/>
<path fill-rule="evenodd" clip-rule="evenodd" d="M21.5068 41.1538C21.5068 40.6015 21.0591 40.1538 20.5068 40.1538H8.45703C7.90475 40.1538 7.45703 40.6015 7.45703 41.1538C7.45703 41.7061 7.90475 42.1538 8.45703 42.1538H20.5068C21.0591 42.1538 21.5068 41.7061 21.5068 41.1538Z" fill="#1B1B1B"/>
<path fill-rule="evenodd" clip-rule="evenodd" d="M21.5491 45.668C21.5491 45.1157 21.1014 44.668 20.5491 44.668H8.45694C7.90466 44.668 7.45694 45.1157 7.45694 45.668C7.45694 46.2203 7.90466 46.668 8.45694 46.668H20.5491C21.1014 46.668 21.5491 46.2203 21.5491 45.668Z" fill="#1B1B1B"/>
<path fill-rule="evenodd" clip-rule="evenodd" d="M21.5068 50.1824C21.5068 49.6301 21.0591 49.1824 20.5068 49.1824H8.45705C7.90476 49.1824 7.45705 49.6301 7.45705 50.1824C7.45705 50.7347 7.90476 51.1824 8.45705 51.1824H20.5068C21.0591 51.1824 21.5068 50.7347 21.5068 50.1824Z" fill="#1B1B1B"/>
<path fill-rule="evenodd" clip-rule="evenodd" d="M6.03553 34.9275C5.61976 34.9275 5.28271 35.2645 5.28271 35.6803V38.44C5.28271 38.9923 4.835 39.44 4.28271 39.44C3.73043 39.44 3.28271 38.9923 3.28271 38.44V35.6803C3.28271 34.16 4.51519 32.9275 6.03553 32.9275C6.58782 32.9275 7.03553 33.3752 7.03553 33.9275C7.03553 34.4798 6.58782 34.9275 6.03553 34.9275ZM22.1052 33.9275C22.1052 33.3752 22.5529 32.9275 23.1052 32.9275C24.6309 32.9275 25.8678 34.1644 25.8678 35.6901V57.6916C25.8678 59.9007 24.0769 61.6916 21.8678 61.6916H7.28271C5.07358 61.6916 3.28271 59.9007 3.28271 57.6916V50.4054C3.28271 49.8531 3.73043 49.4054 4.28271 49.4054C4.835 49.4054 5.28271 49.8531 5.28271 50.4054V57.6916C5.28271 58.7962 6.17815 59.6916 7.28271 59.6916H21.8678C22.9724 59.6916 23.8678 58.7962 23.8678 57.6916V35.6901C23.8678 35.2689 23.5264 34.9275 23.1052 34.9275C22.5529 34.9275 22.1052 34.4798 22.1052 33.9275Z" fill="#086D44"/>
<path fill-rule="evenodd" clip-rule="evenodd" d="M9.05664 33.4214C9.05664 32.3168 9.95207 31.4214 11.0566 31.4214H18.094C19.1986 31.4214 20.094 32.3168 20.094 33.4214V34.4338C20.094 35.5384 19.1986 36.4338 18.094 36.4338H11.0566C9.95207 36.4338 9.05664 35.5384 9.05664 34.4338V33.4214ZM18.094 33.4214H11.0566V34.4338H18.094V33.4214Z" fill="#1B1B1B"/>
<path fill-rule="evenodd" clip-rule="evenodd" d="M4.26709 41.3828C3.71481 41.3828 3.26709 41.8305 3.26709 42.3828V46.3828C3.26709 46.9351 3.71481 47.3828 4.26709 47.3828C4.81937 47.3828 5.26709 46.9351 5.26709 46.3828V42.3828C5.26709 41.8305 4.81937 41.3828 4.26709 41.3828Z" fill="#FFDA55"/>
</svg>
