<svg width="64" height="64" viewBox="0 0 64 64" fill="none" xmlns="http://www.w3.org/2000/svg">
<path fill-rule="evenodd" clip-rule="evenodd" d="M26.0309 22.3693C25.0539 21.3923 23.4972 21.3953 22.5538 22.3387C21.6104 23.2821 21.6074 24.8388 22.5844 25.8158L28.1511 31.3825C28.3386 31.57 28.444 31.8244 28.444 32.0896C28.444 32.3548 28.3386 32.6091 28.1511 32.7967L22.6412 38.3066C21.6978 39.25 21.6948 40.8067 22.6718 41.7837C23.6489 42.7607 25.2056 42.7578 26.149 41.8144L31.6589 36.3045C32.0494 35.9139 32.6825 35.9139 33.0731 36.3045L38.6398 41.8712C39.6168 42.8482 41.1735 42.8452 42.1169 41.9018C43.0603 40.9584 43.0633 39.4017 42.0863 38.4247L36.5196 32.858C36.129 32.4675 36.129 31.8343 36.5196 31.4438L42.0293 25.934C42.9727 24.9907 42.9757 23.4339 41.9986 22.4569C41.0216 21.4799 39.4649 21.4829 38.5215 22.4263L33.0118 27.936C32.6212 28.3265 31.9881 28.3265 31.5976 27.936L26.0309 22.3693ZM21.1396 20.9245C22.8807 19.1834 25.7038 19.2138 27.4451 20.9551L32.3047 25.8147L37.1073 21.012C38.8484 19.2709 41.6715 19.3014 43.4128 21.0427C45.1542 22.784 45.1846 25.6072 43.4435 27.3483L38.6409 32.1509L43.5005 37.0105C45.2418 38.7518 45.2722 41.5749 43.5311 43.316C41.79 45.0571 38.9669 45.0267 37.2256 43.2854L32.366 38.4258L27.5632 43.2286C25.8221 44.9697 22.9989 44.9392 21.2576 43.1979C19.5163 41.4566 19.4859 38.6335 21.227 36.8924L26.0297 32.0896L21.1702 27.23C19.4289 25.4887 19.3985 22.6656 21.1396 20.9245Z" fill="#1B1B1B"/>
<path fill-rule="evenodd" clip-rule="evenodd" d="M45.7485 8.63485C32.8346 1.17901 16.3217 5.60364 8.86581 18.5175C1.40996 31.4314 5.83459 47.9444 18.7485 55.4002C31.1006 62.5317 46.7463 58.7938 54.6079 47.1543C54.917 46.6966 55.5386 46.5762 55.9963 46.8853C56.454 47.1945 56.5744 47.8161 56.2653 48.2737C47.8202 60.7771 31.0163 64.7925 17.7485 57.1323C3.87801 49.1241 -0.874372 31.388 7.13376 17.5175C15.1419 3.64705 32.878 -1.10533 46.7485 6.9028C60.0163 14.563 64.9409 31.1233 58.3352 44.6886C58.0934 45.1851 57.4948 45.3916 56.9983 45.1498C56.5017 44.908 56.2952 44.3095 56.537 43.813C62.6863 31.1849 58.1006 15.7663 45.7485 8.63485Z" fill="#086D44"/>
<path fill-rule="evenodd" clip-rule="evenodd" d="M32.2181 10C30.608 10 29.0393 10.1728 27.5293 10.5005C21.8174 11.7401 16.9297 15.2002 13.8186 19.9346C13.5153 20.3962 12.8953 20.5245 12.4337 20.2212C11.9722 19.9179 11.8439 19.2978 12.1472 18.8363C15.5385 13.6755 20.8684 9.89954 27.1052 8.54601C28.7536 8.18825 30.4645 8 32.2181 8C32.7704 8 33.2181 8.44772 33.2181 9C33.2181 9.55228 32.7704 10 32.2181 10ZM53.939 39.6483C54.4514 39.8544 54.6998 40.4368 54.4937 40.9492C53.5777 43.2274 52.5027 45.1534 50.9437 47.0469C50.5927 47.4733 49.9625 47.5344 49.5361 47.1834C49.1097 46.8323 49.0487 46.2021 49.3997 45.7757C50.8077 44.0655 51.7852 42.3243 52.6381 40.203C52.8442 39.6906 53.4266 39.4423 53.939 39.6483ZM12.1117 43.2216C12.5816 42.9314 13.1978 43.0769 13.4881 43.5467C17.3653 49.8221 24.3042 54 32.2181 54C37.7842 54 42.8653 51.9343 46.7404 48.5262C47.1552 48.1614 47.787 48.202 48.1518 48.6167C48.5165 49.0314 48.476 49.6632 48.0613 50.028C43.8351 53.7448 38.2887 56 32.2181 56C23.5824 56 16.013 51.4383 11.7866 44.598C11.4963 44.1281 11.6419 43.5119 12.1117 43.2216Z" fill="#FFDA55"/>
</svg>
