<svg width="64" height="65" viewBox="0 0 64 65" fill="none" xmlns="http://www.w3.org/2000/svg">
<path fill-rule="evenodd" clip-rule="evenodd" d="M41.1984 21.969C42.9118 20.2586 45.6892 20.2673 47.3917 21.9885C49.0813 23.6966 49.0749 26.4484 47.3772 28.1486L32.3387 43.2091C30.2235 45.3274 26.7796 45.2905 24.7103 43.1273L17.902 36.0104C16.147 34.1758 16.1809 31.2747 17.9783 29.4816C19.843 27.6214 22.8769 27.6724 24.678 29.5942L28.6424 33.824C28.8223 34.0161 29.1255 34.0211 29.3117 33.8352L41.1984 21.969ZM45.9698 23.395C45.0466 22.4617 43.5405 22.4569 42.6114 23.3844L30.7247 35.2506C29.7393 36.2344 28.1353 36.2077 27.1831 35.1917L23.2188 30.9619C22.1897 29.8639 20.4562 29.8347 19.3908 30.8976C18.3638 31.922 18.3444 33.5796 19.3472 34.6278L26.1555 41.7448C27.4489 43.0969 29.6014 43.1199 30.9235 41.7959L45.962 26.7354C46.8825 25.8135 46.8861 24.3212 45.9698 23.395Z" fill="#1B1B1B"/>
<path fill-rule="evenodd" clip-rule="evenodd" d="M45.7485 8.91513C32.8346 1.45928 16.3217 5.88391 8.86581 18.7978C1.40996 31.7117 5.83459 48.2247 18.7485 55.6805C31.1006 62.812 46.7463 59.074 54.6079 47.4346C54.917 46.9769 55.5386 46.8565 55.9963 47.1656C56.454 47.4747 56.5744 48.0963 56.2653 48.554C47.8202 61.0573 31.0163 65.0727 17.7485 57.4125C3.87801 49.4044 -0.874372 31.6683 7.13376 17.7978C15.1419 3.92732 32.878 -0.825055 46.7485 7.18308C60.0163 14.8433 64.9409 31.4036 58.3352 44.9688C58.0934 45.4654 57.4948 45.6719 56.9983 45.4301C56.5017 45.1883 56.2952 44.5898 56.537 44.0932C62.6863 31.4652 58.1006 16.0466 45.7485 8.91513Z" fill="#086D44"/>
<path fill-rule="evenodd" clip-rule="evenodd" d="M32.2181 10.2803C30.608 10.2803 29.0393 10.4531 27.5293 10.7808C21.8174 12.0204 16.9297 15.4805 13.8186 20.2149C13.5153 20.6764 12.8953 20.8047 12.4337 20.5014C11.9722 20.1981 11.8439 19.5781 12.1472 19.1165C15.5385 13.9558 20.8684 10.1798 27.1052 8.82628C28.7536 8.46852 30.4645 8.28027 32.2181 8.28027C32.7704 8.28027 33.2181 8.72799 33.2181 9.28027C33.2181 9.83256 32.7704 10.2803 32.2181 10.2803ZM53.939 39.9286C54.4514 40.1346 54.6998 40.717 54.4937 41.2295C53.5777 43.5077 52.5027 45.4337 50.9437 47.3272C50.5927 47.7536 49.9625 47.8147 49.5361 47.4636C49.1097 47.1126 49.0487 46.4824 49.3997 46.056C50.8077 44.3458 51.7852 42.6046 52.6381 40.4833C52.8442 39.9709 53.4266 39.7225 53.939 39.9286ZM12.1117 43.5019C12.5816 43.2116 13.1978 43.3572 13.4881 43.827C17.3653 50.1023 24.3042 54.2803 32.2181 54.2803C37.7842 54.2803 42.8653 52.2145 46.7404 48.8064C47.1552 48.4417 47.787 48.4822 48.1518 48.8969C48.5165 49.3117 48.476 49.9435 48.0613 50.3083C43.8351 54.0251 38.2887 56.2803 32.2181 56.2803C23.5824 56.2803 16.013 51.7186 11.7866 44.8783C11.4963 44.4084 11.6419 43.7922 12.1117 43.5019Z" fill="#FFDA55"/>
</svg>
